<svg width="40" height="40" xmlns="http://www.w3.org/2000/svg">
 <g>
  <title>Layer 1</title>
  <path id="svg_3" d="m1115.22503,121.10761c0.04247,0.00007 0.08305,0.00925 0.12148,0.02459l-0.03041,0.06567l0.21588,0l-0.05398,-0.11673l-0.05394,-0.11669l-0.0284,0.06149c-0.05322,-0.02429 -0.11059,-0.03789 -0.17058,-0.03789c-0.27615,0 -0.49998,0.27947 -0.49998,0.62425c0,0.1431 0.03898,0.27457 0.10385,0.37991l0.07602,-0.07288c-0.05247,-0.08513 -0.08401,-0.19135 -0.08418,-0.30699c0.00038,-0.27875 0.18101,-0.5043 0.40425,-0.50473l0,0l-0.00001,0zm0.39618,0.12492l-0.07602,0.07291c0.05245,0.08509 0.084,0.19125 0.08414,0.30693c-0.00038,0.27875 -0.18101,0.50427 -0.40426,0.50473c-0.03956,-0.00006 -0.07741,-0.0081 -0.11349,-0.02153l0.02862,-0.06179l-0.21588,0l0.05394,0.11666l0.05398,0.11682l0.0301,-0.06521c0.05104,0.02219 0.10567,0.03456 0.16273,0.03459c0.27619,-0.00006 0.49998,-0.27954 0.50004,-0.62432c-0.00006,-0.1431 -0.03907,-0.27454 -0.10391,-0.37981l0,0l0.00001,0.00002z" stroke="#000" fill="none"/>
  <path id="svg_4" d="m1090.34483,140.01261c0.12742,0.00007 0.24915,0.00925 0.36443,0.02459l-0.09124,0.06567l0.64764,0l-0.16195,-0.11673l-0.16183,-0.11669l-0.08519,0.06149c-0.15965,-0.02429 -0.33177,-0.03789 -0.51175,-0.03789c-0.82845,0 -1.49993,0.27947 -1.49993,0.62425c0,0.1431 0.11694,0.27457 0.31156,0.37991l0.22807,-0.07288c-0.1574,-0.08513 -0.25204,-0.19135 -0.25255,-0.30699c0.00115,-0.27875 0.54303,-0.5043 1.21274,-0.50473l0,0zm1.18853,0.12492l-0.22807,0.07291c0.15736,0.08509 0.252,0.19125 0.25243,0.30693c-0.00115,0.27875 -0.54303,0.50427 -1.21277,0.50473c-0.11868,-0.00006 -0.23222,-0.0081 -0.34047,-0.02153l0.08586,-0.06179l-0.64763,0l0.16183,0.11666l0.16195,0.11682l0.09029,-0.06521c0.15313,0.02219 0.31701,0.03456 0.48818,0.03459c0.82857,-0.00006 1.49993,-0.27954 1.50013,-0.62432c-0.00019,-0.1431 -0.11722,-0.27454 -0.31172,-0.37981l0,0l-0.00001,0.00002z" stroke="#000" fill="none"/>
  <path transform="rotate(135 19.9998 19.9998)" stroke="#59A869" stroke-width="0.2" id="svg_17" d="m11.55875,10.42383l-11.53308,9.57683l11.53415,9.57504l4.19523,-3.48232l-7.34096,-6.09272l7.33943,-6.09272l-4.19478,-3.4841l0,0l0.00001,-0.00001zm16.87956,0l-4.1922,3.48322l7.33946,6.09272l-7.33946,6.09197l4.1922,3.48231l11.53569,-9.57592l-11.53569,-9.5743z" fill="#59A869"/>
  <path stroke="#EDA200" stroke-width="0.2" id="svg_18" d="m26.40576,19.99938l-2.5847,0.91309l0,-1.8252l2.5847,0.91211zm-1.87671,-4.49784l-1.17754,2.46115l-1.29945,-1.29135l2.47699,-1.1698zm-4.52898,-1.86264l0.91902,2.56714l-1.83852,0l0.91951,-2.56714l-0.00001,0zm-4.52947,1.86264l2.47796,1.1698l-1.29994,1.29135l-1.17802,-2.46115zm-1.87622,4.49784l2.58519,-0.91211l0,1.8252l-2.58519,-0.91309zm1.87622,4.49784l1.17802,-2.46018l1.29994,1.29086l-2.47796,1.16931l0,0l0,0.00001zm4.52947,1.86409l-0.91951,-2.56763l1.83852,0l-0.91902,2.56763l0.00001,0zm4.52898,-1.86409l-2.47748,-1.16883l1.29945,-1.29086l1.17802,2.45969l0.00001,0zm-7.73158,-4.49784l0,0c0,-1.75616 1.4341,-3.18024 3.20309,-3.18024c1.76851,0 3.20309,1.42408 3.20309,3.18024c0,1.75664 -1.43459,3.18073 -3.20309,3.18073c-1.76949,0 -3.20309,-1.42408 -3.20309,-3.18073l0,0z" fill="none"/>
  <path stroke="#389FD6" id="svg_21" d="m19.57078,21.68871c-0.5176,-0.18336 -0.88861,-0.76597 -0.80429,-1.26304c0.05317,-0.31344 1.17483,-2.21625 1.27278,-2.15918c0.03197,0.01863 0.31648,0.46225 0.63224,0.98583c0.50582,0.83872 0.57411,0.99512 0.57411,1.31472c0,0.64782 -0.54996,1.17846 -1.21029,1.16778c-0.1927,-0.00312 -0.40174,-0.02387 -0.46455,-0.04612l0,0l0,0.00001zm0.51858,-0.32583c0.01713,-0.08387 -0.02289,-0.12477 -0.12209,-0.12477c-0.22608,0 -0.53969,-0.26994 -0.60975,-0.52484c-0.07474,-0.27192 -0.27291,-0.30425 -0.30218,-0.04931c-0.05639,0.49118 0.93901,1.16401 1.03402,0.69893l0,0l0,-0.00001z" stroke-width="0.2" fill="none"/>
 </g>

</svg>